<?xml version="1.0" encoding="iso-8859-1"?>
<!-- Generator: Adobe Illustrator 19.0.0, SVG Export Plug-In . SVG Version: 6.00 Build 0)  -->
<svg version="1.1" id="Layer_1" xmlns="http://www.w3.org/2000/svg" xmlns:xlink="http://www.w3.org/1999/xlink" x="0px" y="0px"
	 viewBox="0 0 512 512" style="enable-background:new 0 0 512 512;" xml:space="preserve">
<g>
	<rect x="79.365" y="106.279" style="fill:#808080;" width="21.807" height="61.001"/>
	<rect x="79.365" y="226.02" style="fill:#808080;" width="21.807" height="63.876"/>
	<rect x="156.469" y="94.066" style="fill:#808080;" width="21.807" height="61.001"/>
	<rect x="156.469" y="226.02" style="fill:#808080;" width="21.807" height="63.876"/>
	<rect x="233.584" y="87.961" style="fill:#808080;" width="21.807" height="61.001"/>
	<rect x="233.584" y="226.02" style="fill:#808080;" width="21.807" height="63.876"/>
	<rect x="310.7" y="94.066" style="fill:#808080;" width="21.807" height="61.001"/>
	<rect x="310.7" y="226.02" style="fill:#808080;" width="21.807" height="63.876"/>
	<rect x="404.973" y="221.923" style="fill:#808080;" width="23.653" height="73.844"/>
	<rect x="333.849" y="332.127" style="fill:#808080;" width="63.05" height="21.807"/>
</g>
<path style="fill:#CCCCCC;" d="M344.756,278.99H58.694v89.979C58.694,447.963,122.731,512,201.725,512l0,0
	c78.994,0,143.031-64.037,143.031-143.031V278.99z"/>
<path style="fill:#B3B3B3;" d="M200.368,511.986c-78.378-0.723-141.675-64.467-141.675-143.017v-89.981h38.093v89.981
	C96.787,447.347,143.028,510.999,200.368,511.986z"/>
<g>
	<path style="fill:#CCCCCC;" d="M416.803,160.948L416.803,160.948c-20.161,0-36.504,16.344-36.504,36.503v53.51h73.008v-53.51
		C453.306,177.292,436.964,160.948,416.803,160.948z"/>
	<path style="fill:#CCCCCC;" d="M453.306,283.939h-73.008v107.23l0,0c40.321,0,73.008-32.687,73.008-73.008V283.939z"/>
	<rect x="67.108" y="156.388" style="fill:#CCCCCC;" width="46.31" height="80.535"/>
	<path style="fill:#CCCCCC;" d="M90.262,36.65L90.262,36.65c-12.788,0-23.154,10.366-23.154,23.154v57.38h46.309v-57.38
		C113.417,47.016,103.05,36.65,90.262,36.65z"/>
	<rect x="144.223" y="144.165" style="fill:#CCCCCC;" width="46.31" height="92.747"/>
	<path style="fill:#CCCCCC;" d="M167.375,6.108L167.375,6.108c-12.788,0-23.154,10.366-23.154,23.154v75.705h46.309V29.262
		C190.53,16.474,180.163,6.108,167.375,6.108z"/>
	<rect x="221.338" y="138.059" style="fill:#CCCCCC;" width="46.31" height="98.865"/>
	<path style="fill:#CCCCCC;" d="M244.488,0L244.488,0c-12.788,0-23.154,10.366-23.154,23.154v75.705h46.309V23.154
		C267.643,10.366,257.276,0,244.488,0z"/>
	<rect x="298.442" y="144.165" style="fill:#CCCCCC;" width="46.31" height="92.747"/>
	<path style="fill:#CCCCCC;" d="M321.601,24.433L321.601,24.433c-12.788,0-23.154,10.366-23.154,23.154v57.38h46.309V47.588
		C344.756,34.8,334.389,24.433,321.601,24.433z"/>
</g>
<g>
	<circle style="fill:#808080;" cx="138.507" cy="358.697" r="31.149"/>
	<circle style="fill:#808080;" cx="264.94" cy="358.697" r="31.149"/>
</g>
<g>
</g>
<g>
</g>
<g>
</g>
<g>
</g>
<g>
</g>
<g>
</g>
<g>
</g>
<g>
</g>
<g>
</g>
<g>
</g>
<g>
</g>
<g>
</g>
<g>
</g>
<g>
</g>
<g>
</g>
</svg>
