<?xml version="1.0" ?><svg width="512px" height="512px" viewBox="0 0 512 512" data-name="Layer 1" id="Layer_1" xmlns="http://www.w3.org/2000/svg"><path d="M442.28,200.65a3.91,3.91,0,0,0-.26-.44c0-.05-.11-.06-.15-.11a57.51,57.51,0,0,0-45.71-22.68h-10.9a57.48,57.48,0,0,0-45.71,22.69c-.05,0-.11.06-.15.11s-.15.28-.25.41A57.27,57.27,0,0,0,327.65,235v15.13q-1.93-3.22-4.17-6.23a4.4,4.4,0,0,0-.39-.66c-.06-.07-.16-.1-.23-.17-1.2-1.58-2.47-3.11-3.79-4.58v-66a57.27,57.27,0,0,0-11.5-34.39c-.11-.14-.14-.3-.26-.43s-.11-.07-.15-.12A57.5,57.5,0,0,0,261.45,115h-10.9a57.48,57.48,0,0,0-45.71,22.69c-.05,0-.11.06-.15.1s-.15.29-.25.42a57.24,57.24,0,0,0-11.51,34.4v66c-1.33,1.48-2.59,3-3.8,4.59-.07.07-.16.1-.22.17a4.15,4.15,0,0,0-.38.64,71.4,71.4,0,0,0-4.18,6.24V235a57.26,57.26,0,0,0-11.49-34.39c-.11-.14-.14-.31-.26-.44s-.11-.06-.15-.11a57.51,57.51,0,0,0-45.71-22.68h-10.9a57.51,57.51,0,0,0-45.72,22.69s-.1.06-.14.11-.15.28-.25.41A57.27,57.27,0,0,0,58.22,235v46.24a5.33,5.33,0,0,0,5.34,5.33H81.9v15.44a15.72,15.72,0,0,0,31.43,0V286.61h15.93v15.44a15.71,15.71,0,1,0,31.42,0V286.61h13.11c0,.64-.1,1.27-.1,1.91v61.67a5.33,5.33,0,0,0,5.33,5.33h26.24v22.35a19.17,19.17,0,1,0,38.34,0V355.52h24.8v22.35a19.17,19.17,0,1,0,38.34,0V355.52H333a5.33,5.33,0,0,0,5.33-5.33V288.52c0-.64-.08-1.27-.1-1.91h13.11v15.44a15.71,15.71,0,0,0,31.42,0V286.61h15.93v15.44a15.72,15.72,0,0,0,31.43,0V286.61h18.34a5.33,5.33,0,0,0,5.34-5.33V235A57.27,57.27,0,0,0,442.28,200.65ZM115.84,188.09h10.9a46.64,46.64,0,0,1,34.59,15.47c-5.4,5.71-15.15,17.43-19,31.34a8.56,8.56,0,0,1-8.19,6.24H108.48a8.56,8.56,0,0,1-8.19-6.24c-3.89-13.91-13.64-25.63-19-31.34A46.64,46.64,0,0,1,115.84,188.09Zm-13.17,114a5.05,5.05,0,1,1-10.1,0V286.61h10.1Zm47.34,0a5,5,0,1,1-10.09,0V286.61H150ZM173.69,276H68.89V235a46.31,46.31,0,0,1,6-22.59c4.82,5.36,12.13,14.74,15.09,25.32a19.24,19.24,0,0,0,18.45,14H134.1a19.24,19.24,0,0,0,18.45-14c2.95-10.53,10.27-19.93,15.1-25.31a46.37,46.37,0,0,1,6,22.58ZM256,298.43H238.91a13.17,13.17,0,0,1-12.62-9.61c-5.39-19.31-19.49-35.47-26.2-42.35a64.2,64.2,0,0,1,48.64-22.32h14.54a64.2,64.2,0,0,1,48.64,22.32c-6.71,6.88-20.81,23-26.21,42.35a13.16,13.16,0,0,1-12.62,9.61ZM209.65,150c4.82,5.36,12.13,14.74,15.09,25.32a19.24,19.24,0,0,0,18.45,14h25.62a19.24,19.24,0,0,0,18.45-14c2.95-10.54,10.27-19.94,15.1-25.31a46.36,46.36,0,0,1,6,22.57v56.15a74.51,74.51,0,0,0-45.13-15.24H248.73a74.53,74.53,0,0,0-45.13,15.24V172.57A46.27,46.27,0,0,1,209.65,150Zm40.9-24.37h10.9A46.68,46.68,0,0,1,296,141.09c-5.4,5.71-15.15,17.44-19,31.34a8.56,8.56,0,0,1-8.19,6.24H243.19a8.56,8.56,0,0,1-8.19-6.24c-3.89-13.9-13.64-25.63-19-31.34A46.68,46.68,0,0,1,250.55,125.62ZM232.94,377.87a8.51,8.51,0,1,1-17,0V355.52h17Zm63.13,0a8.51,8.51,0,1,1-17,0V355.52h17Zm31.58-33H184.35V288.52a63.87,63.87,0,0,1,9.36-33.25c6.37,6.76,17.89,20.59,22.31,36.42a23.87,23.87,0,0,0,22.89,17.4h34.17A23.84,23.84,0,0,0,296,291.69c4.41-15.78,15.95-29.63,22.32-36.41a63.84,63.84,0,0,1,9.36,33.24Zm57.61-156.77h10.9a46.64,46.64,0,0,1,34.59,15.47c-5.4,5.71-15.15,17.43-19,31.34a8.56,8.56,0,0,1-8.19,6.24H377.89a8.54,8.54,0,0,1-8.18-6.24c-3.88-13.91-13.64-25.63-19-31.34A46.64,46.64,0,0,1,385.26,188.09Zm-13.18,114a5,5,0,1,1-10.09,0V286.61h10.09Zm47.35,0a5.05,5.05,0,1,1-10.1,0V286.61h10.1ZM443.11,276H338.31V235a46.31,46.31,0,0,1,6.05-22.59c4.82,5.36,12.13,14.74,15.09,25.32a19.21,19.21,0,0,0,18.44,14h25.63a19.24,19.24,0,0,0,18.45-14c2.95-10.53,10.27-19.93,15.1-25.31a46.37,46.37,0,0,1,6,22.58Z"/></svg>